<?xml version="1.0" encoding="iso-8859-1"?>
<!-- Generator: Adobe Illustrator 19.0.0, SVG Export Plug-In . SVG Version: 6.00 Build 0)  -->
<svg xmlns="http://www.w3.org/2000/svg" xmlns:xlink="http://www.w3.org/1999/xlink" version="1.1" id="Layer_1" x="0px" y="0px" viewBox="0 0 512 512" style="enable-background:new 0 0 512 512;" xml:space="preserve">
<path style="fill:#EBEBEC;" d="M503.322,108.475H121.492c-4.792,0-8.678,3.886-8.678,8.678v277.695c0,4.792,3.886,8.678,8.678,8.678  h381.831c4.792,0,8.678-3.886,8.678-8.678V117.153C512,112.36,508.114,108.475,503.322,108.475z"/>
<polygon style="fill:#6AC8B7;" points="446.171,403.525 512,337.697 512,313.151 421.625,403.525 "/>
<polygon style="fill:#F07B52;" points="385.425,403.525 512,276.951 512,252.405 360.88,403.525 "/>
<polygon style="fill:#6AC8B7;" points="512,191.659 300.134,403.525 324.68,403.525 512,216.205 "/>
<polygon style="fill:#F07B52;" points="512,130.914 239.388,403.525 263.934,403.525 512,155.459 "/>
<polygon style="fill:#6AC8B7;" points="465.015,108.475 169.964,403.525 194.51,403.525 489.561,108.475 "/>
<path style="fill:#F07B52;" d="M395.592,108.475L112.814,391.253v3.595c0,4.792,3.886,8.678,8.678,8.678h3.595l295.051-295.051  H395.592z"/>
<polygon style="fill:#6AC8B7;" points="326.168,108.475 112.814,321.829 112.814,346.375 350.714,108.475 "/>
<polygon style="fill:#F07B52;" points="256.744,108.475 112.814,252.405 112.814,276.951 281.29,108.475 "/>
<polygon style="fill:#6AC8B7;" points="187.32,108.475 112.814,182.981 112.814,207.527 211.866,108.475 "/>
<path style="fill:#D7D8D9;" d="M477.288,134.508H147.525c-4.792,0-8.678,3.886-8.678,8.678v225.627c0,4.792,3.886,8.678,8.678,8.678  h329.763c4.792,0,8.678-3.886,8.678-8.678V143.186C485.966,138.394,482.081,134.508,477.288,134.508z"/>
<g>
	<path style="fill:#AFB0B4;" d="M234.305,195.254h-43.39c-4.792,0-8.678-3.886-8.678-8.678c0-4.792,3.886-8.678,8.678-8.678h43.39   c4.792,0,8.678,3.886,8.678,8.678C242.983,191.369,239.097,195.254,234.305,195.254z"/>
	<path style="fill:#AFB0B4;" d="M329.763,247.322H216.949c-4.792,0-8.678-3.886-8.678-8.678s3.886-8.678,8.678-8.678h112.814   c4.792,0,8.678,3.886,8.678,8.678S334.555,247.322,329.763,247.322z"/>
	<path style="fill:#AFB0B4;" d="M329.763,282.034H216.949c-4.792,0-8.678-3.886-8.678-8.678c0-4.792,3.886-8.678,8.678-8.678   h112.814c4.792,0,8.678,3.886,8.678,8.678C338.441,278.148,334.555,282.034,329.763,282.034z"/>
	<path style="fill:#AFB0B4;" d="M295.051,316.746h-78.102c-4.792,0-8.678-3.886-8.678-8.678c0-4.792,3.886-8.678,8.678-8.678h78.102   c4.792,0,8.678,3.886,8.678,8.678C303.729,312.86,299.843,316.746,295.051,316.746z"/>
</g>
<rect x="373.153" y="177.898" style="fill:#FDDD85;" width="69.424" height="78.102"/>
<path style="fill:#F58F6C;" d="M459.932,221.288c0-4.792-3.886-8.678-8.678-8.678v-8.678c4.792,0,8.678-3.886,8.678-8.678  s-3.886-8.678-8.678-8.678v-8.678c0-4.792-3.886-8.678-8.678-8.678c0-4.792-3.886-8.678-8.678-8.678  c-4.792,0-8.678,3.886-8.678,8.678h-8.678c0-4.792-3.886-8.678-8.678-8.678c-4.792,0-8.678,3.886-8.678,8.678h-8.678  c0-4.792-3.886-8.678-8.678-8.678c-4.792,0-8.678,3.886-8.678,8.678c-4.792,0-8.678,3.886-8.678,8.678v8.678  c-4.792,0-8.678,3.886-8.678,8.678s3.886,8.678,8.678,8.678v8.678c-4.792,0-8.678,3.886-8.678,8.678s3.886,8.678,8.678,8.678v8.678  c-4.792,0-8.678,3.886-8.678,8.678s3.886,8.678,8.678,8.678c0,4.792,3.886,8.678,8.678,8.678c0,4.792,3.886,8.678,8.678,8.678  c4.792,0,8.678-3.886,8.678-8.678h8.678c0,4.792,3.886,8.678,8.678,8.678c4.792,0,8.678-3.886,8.678-8.678h8.678  c0,4.792,3.886,8.678,8.678,8.678c4.792,0,8.678-3.886,8.678-8.678c4.792,0,8.678-3.886,8.678-8.678  c4.792,0,8.678-3.886,8.678-8.678s-3.886-8.678-8.678-8.678v-8.678C456.047,229.966,459.932,226.081,459.932,221.288z   M381.831,247.322v-60.746h52.068v60.746H381.831z"/>
<g>
	<path style="fill:#F2C127;" d="M416.542,212.61h-17.356c-4.792,0-8.678-3.886-8.678-8.678s3.886-8.678,8.678-8.678h17.356   c4.792,0,8.678,3.886,8.678,8.678S421.335,212.61,416.542,212.61z"/>
	<path style="fill:#F2C127;" d="M416.542,238.644h-17.356c-4.792,0-8.678-3.886-8.678-8.678c0-4.792,3.886-8.678,8.678-8.678h17.356   c4.792,0,8.678,3.886,8.678,8.678C425.22,234.759,421.335,238.644,416.542,238.644z"/>
</g>
<g>
	<path style="fill:#FDD042;" d="M95.458,160.542H8.678c-4.792,0-8.678-3.886-8.678-8.678s3.886-8.678,8.678-8.678h86.78   c4.792,0,8.678,3.886,8.678,8.678S100.25,160.542,95.458,160.542z"/>
	<path style="fill:#FDD042;" d="M95.458,229.966H26.034c-4.792,0-8.678-3.886-8.678-8.678s3.886-8.678,8.678-8.678h69.424   c4.792,0,8.678,3.886,8.678,8.678S100.25,229.966,95.458,229.966z"/>
	<path style="fill:#FDD042;" d="M95.458,299.39H34.712c-4.792,0-8.678-3.886-8.678-8.678c0-4.792,3.886-8.678,8.678-8.678h60.746   c4.792,0,8.678,3.886,8.678,8.678C104.136,295.504,100.25,299.39,95.458,299.39z"/>
	<path style="fill:#FDD042;" d="M95.458,368.814h-43.39c-4.792,0-8.678-3.886-8.678-8.678c0-4.792,3.886-8.678,8.678-8.678h43.39   c4.792,0,8.678,3.886,8.678,8.678C104.136,364.928,100.25,368.814,95.458,368.814z"/>
</g>
<g>
</g>
<g>
</g>
<g>
</g>
<g>
</g>
<g>
</g>
<g>
</g>
<g>
</g>
<g>
</g>
<g>
</g>
<g>
</g>
<g>
</g>
<g>
</g>
<g>
</g>
<g>
</g>
<g>
</g>
</svg>
